<?xml version="1.0" encoding="utf-8"?>
<!-- Generator: Adobe Illustrator 26.3.1, SVG Export Plug-In . SVG Version: 6.00 Build 0)  -->
<svg version="1.1" id="Layer_1" xmlns="http://www.w3.org/2000/svg" xmlns:xlink="http://www.w3.org/1999/xlink" x="0px" y="0px"
	 viewBox="0 0 768 768" style="enable-background:new 0 0 768 768;" xml:space="preserve">
<style type="text/css">
	.st0{fill:#4D4D4D;}
	.st1{fill:#FFFFFF;}
</style>
<g>
	<path class="st0" d="M595,640c-140.7,0-281.3,0-422,0c-1.4-0.4-2.7-1.1-4.2-1.3c-19-1.7-36.6-18.1-39.4-36.6
		c-0.4-2.4-0.9-4.8-1.4-7.1c0-140.7,0-281.3,0-422c0.4-1.4,1.1-2.7,1.3-4.2c1.7-19,18.1-36.6,36.6-39.4c2.4-0.4,4.8-0.9,7.1-1.4
		c140.7,0,281.3,0,422,0c1.4,0.4,2.7,1.1,4.2,1.3c19,1.7,36.6,18.1,39.4,36.6c0.4,2.4,0.9,4.8,1.4,7.1c0,140.7,0,281.3,0,422
		c-0.4,1.4-1.1,2.7-1.3,4.2c-1.7,19-18.1,36.6-36.6,39.4C599.7,638.9,597.4,639.5,595,640z M409.4,345.4c0-4.6,0-9.8,0-15
		c-0.1-9.6-5.3-14.8-14.8-14.8c-18.3,0-36.7,0-55,0c-10.8,0-15.9,5.1-15.9,15.8c0,79,0,158,0,237c0,10.5,5.4,15.9,16.1,15.9
		c17.8,0,35.7,0,53.5,0c11,0,16.1-5.2,16.1-16.2c0-40.3,0-80.7,0-121c0-13.2,2.8-25.7,8.5-37.6c8.2-17.1,23.5-25.8,42.6-24.1
		c17.9,1.6,30.5,11.9,35,30.5c2.3,9.4,3.7,19.3,3.8,29c0.4,41.3,0.1,82.7,0.2,124c0,10.3,5,15.3,15.3,15.4c18.7,0,37.3,0,56,0
		c10.9,0,16.4-5.3,16.3-16.2c-0.2-48.2-0.2-96.3-0.9-144.5c-0.3-19.7-3.3-39.1-10.7-57.5c-8.1-20.4-21.1-36.5-41.5-45.8
		c-19.5-8.9-40.2-10-61.1-8c-15.2,1.4-30,5-42.5,14.4C422.8,332.2,416.3,339.1,409.4,345.4z M287.3,450.1c0-39.3,0-78.6,0-117.9
		c0-10.9-5.6-16.6-16.1-16.6c-17.8,0-35.6,0-53.5,0c-10.8,0-16.1,5.3-16.1,16.3c0,78.6,0,157.2,0,235.9c0,11.1,5.4,16.5,16.6,16.5
		c17,0,34,0,51,0c12.8,0,18.1-5.3,18.1-18.3C287.3,527.4,287.3,488.8,287.3,450.1z M299.4,239.1c0-30.4-24.8-55.4-55.2-55.4
		c-30.1,0-55.2,24.7-55,55.1c0.2,31.7,24.8,55.1,55.3,55.3C274.6,294.4,299.3,269.2,299.4,239.1z"/>
	<path class="st1" d="M173,128c-2.4,0.5-4.7,1.1-7.1,1.4c-18.5,2.8-34.9,20.4-36.6,39.4c-0.1,1.4-0.8,2.8-1.3,4.2c0-15,0-30,0-45
		C143,128,158,128,173,128z"/>
	<path class="st1" d="M640,173c-0.5-2.4-1.1-4.7-1.4-7.1c-2.8-18.5-20.4-34.9-39.4-36.6c-1.4-0.1-2.8-0.8-4.2-1.3c15,0,30,0,45,0
		C640,143,640,158,640,173z"/>
	<path class="st1" d="M128,595c0.5,2.4,1.1,4.7,1.4,7.1c2.8,18.5,20.4,34.9,39.4,36.6c1.4,0.1,2.8,0.8,4.2,1.3c-15,0-30,0-45,0
		C128,625,128,610,128,595z"/>
	<path class="st1" d="M595,640c2.4-0.5,4.7-1.1,7.1-1.4c18.5-2.8,34.9-20.4,36.6-39.4c0.1-1.4,0.8-2.8,1.3-4.2c0,15,0,30,0,45
		C625,640,610,640,595,640z"/>
	<path class="st1" d="M409.4,345.4c6.9-6.3,13.4-13.2,20.9-18.8c12.5-9.3,27.3-12.9,42.5-14.4c20.9-1.9,41.6-0.8,61.1,8
		c20.4,9.3,33.4,25.4,41.5,45.8c7.4,18.5,10.4,37.9,10.7,57.5c0.7,48.1,0.7,96.3,0.9,144.5c0,10.9-5.5,16.2-16.3,16.2
		c-18.7,0-37.3,0-56,0c-10.2,0-15.3-5.1-15.3-15.4c0-41.3,0.2-82.7-0.2-124c-0.1-9.7-1.5-19.6-3.8-29c-4.6-18.5-17.1-28.9-35-30.5
		c-19.1-1.7-34.4,7-42.6,24.1c-5.7,11.9-8.5,24.4-8.5,37.6c0,40.3,0,80.7,0,121c0,11-5.1,16.2-16.1,16.2c-17.8,0-35.7,0-53.5,0
		c-10.6,0-16-5.4-16.1-15.9c0-79,0-158,0-237c0-10.7,5.2-15.8,15.9-15.8c18.3,0,36.7,0,55,0c9.5,0,14.7,5.3,14.8,14.8
		C409.4,335.6,409.4,340.8,409.4,345.4z"/>
	<path class="st1" d="M287.3,450.1c0,38.6,0,77.3,0,115.9c0,13-5.3,18.3-18.1,18.3c-17,0-34,0-51,0c-11.1,0-16.6-5.5-16.6-16.5
		c0-78.6,0-157.2,0-235.9c0-11,5.2-16.3,16.1-16.3c17.8,0,35.6,0,53.5,0c10.5,0,16.1,5.7,16.1,16.6
		C287.3,371.5,287.3,410.8,287.3,450.1z"/>
	<path class="st1" d="M299.4,239.1c0,30.2-24.8,55.3-55,55.1c-30.4-0.3-55.1-23.6-55.3-55.3c-0.2-30.3,25-55.1,55-55.1
		C274.5,183.7,299.4,208.6,299.4,239.1z"/>
</g>
</svg>
