<?xml version="1.0" encoding="utf-8"?>
<!-- Generator: Adobe Illustrator 26.3.1, SVG Export Plug-In . SVG Version: 6.00 Build 0)  -->
<svg version="1.1" id="Layer_1" xmlns="http://www.w3.org/2000/svg" xmlns:xlink="http://www.w3.org/1999/xlink" x="0px" y="0px"
	 viewBox="0 0 768 768" style="enable-background:new 0 0 768 768;" xml:space="preserve">
<style type="text/css">
	.st0{fill:#4C4D4D;}
</style>
<g>
	<path class="st0" d="M700.4,188.5c0,2.1,0,4.1,0,6.2c-14.4,17.5-30.3,33.4-48.6,46.9c-3.3,2.4-4.4,5.1-4.5,9.2
		c-0.7,20.9-0.5,42-3.1,62.7c-7.7,60.3-28,116.5-61.2,167.5c-71.7,110.3-173.9,169.2-305.1,177.1c-54.8,3.3-108.2-4.8-159.5-24.5
		c-14.9-5.7-29.2-13-43.8-19.6c-3.9-1.8-6.4-4.8-5.4-9.3c0.9-4.4,4.3-6.3,8.6-6.6c1-0.1,2.1-0.1,3.1-0.1
		c45.2-0.6,87.8-11.6,127.4-33.3c13.4-7.3,25.9-16.2,40.1-25.2c-2.7-0.7-3.3-0.9-3.8-0.9c-48.8-3.8-86.4-26.2-112.5-67.7
		c-4.8-7.6-5-14.1-0.4-20c3.6-4.6,8.5-5.8,14.1-6.3c10.3-0.9,20.6-2.4,30.8-3.6c0-0.6-0.1-1.2-0.1-1.7c-20.9-4.9-39.9-13.7-56.8-27
		C95,392.8,78,368.2,70,337.7c-4.1-15.7,8.2-28.5,24.1-25.4c2.8,0.5,5.6,1.3,8.4,2c4.4,1,8.8,2,13.2,2.9c4.2,0.8,8.5,1.3,13.4,2
		c-0.7-1.4-0.9-1.8-1.1-2c-0.6-0.6-1.2-1.1-1.9-1.6c-24.8-18.5-40.6-43.2-48.4-72.9c-6.9-25.9-7.1-52,0.3-77.9
		c3.3-11.5,13.7-17.8,24.1-14c4.4,1.6,8.4,5.1,11.8,8.5c63.1,64.5,139,103.5,228.4,116.3c10.7,1.5,21.5,2.2,32.7,3.4
		c-0.3-2.6-0.3-4.2-0.6-5.8c-5.8-31.6-2-62,13.1-90.3c23.5-43.9,60.4-69.4,110.1-74.1c42.2-4,78.8,10.1,109.3,39.7
		c1.8,1.7,5.5,2.6,7.9,2.2c20.2-3.9,39.6-10.7,58.2-19.5c4.6-2.2,9.3-4.2,13.6,0.3c4.3,4.5,2.3,9.3-0.8,13.4
		c-7.3,9.9-14.2,20.2-22.5,29.2c-7,7.6-15.6,13.6-23.5,20.4c15.5-2.4,30.9-5.8,46-9.9C691.8,182.9,696.6,183.1,700.4,188.5z"/>
</g>
</svg>
