<?xml version="1.0" encoding="utf-8"?>
<!-- Generator: Adobe Illustrator 26.3.1, SVG Export Plug-In . SVG Version: 6.00 Build 0)  -->
<svg version="1.1" id="Layer_1" xmlns="http://www.w3.org/2000/svg" xmlns:xlink="http://www.w3.org/1999/xlink" x="0px" y="0px"
	 viewBox="0 0 768 768" style="enable-background:new 0 0 768 768;" xml:space="preserve">
<style type="text/css">
	.st0{fill:#4D4D4D;}
	.st1{fill:#FFFFFF;}
</style>
<g>
	<path class="st0" d="M386.4,603.1c-74.9-1.5-146.9-0.9-218.5-8.6c-19-2-38.2-4.6-54.2-17c-15.4-11.9-26.8-26.8-29.7-46.1
		c-4.4-29-8.6-58.1-10.5-87.4c-4-61.5-2.6-123,6-184.2c2.9-20.5,7-40.7,21.9-56.7c11.7-12.5,25.5-21.1,42.5-24.4
		c37.7-7.2,75.8-8.4,114-9.8c102.7-3.6,205.4-3.6,308,3c18.4,1.2,36.9,3.3,55,6.7c33.4,6.2,55.1,26.7,61.6,59.8
		c5.6,28.7,8.7,58.1,10.6,87.3c3.9,61.3,2.6,122.6-5.9,183.5c-2.5,18.1-5.8,36.2-17.4,51.3c-12.3,16.1-28,26.6-48.1,30.3
		c-41.1,7.6-82.8,8.6-124.4,9.9C459.4,602,421.4,602.4,386.4,603.1z M321.2,290.8c0,63.2,0,124.7,0,187.7
		c54.5-31.4,107.8-62.2,162.5-93.8C429,353.1,375.7,322.3,321.2,290.8z"/>
	<path class="st1" d="M321.2,290.8c54.5,31.4,107.8,62.2,162.5,93.8c-54.8,31.6-108.1,62.4-162.5,93.8
		C321.2,415.6,321.2,354.1,321.2,290.8z"/>
</g>
</svg>
